<svg width="121" height="121" viewBox="0 0 121 121" fill="none" xmlns="http://www.w3.org/2000/svg">
<g clip-path="url(#clip0_199_3600)">
<path d="M21.4359 87.9726C19.8033 87.9818 18.1756 87.7919 16.589 87.407C15.064 87.0377 13.6357 86.3463 12.3998 85.3795C11.094 84.3105 10.0843 82.9244 9.46743 81.3537C8.74131 79.6417 8.37966 77.4564 8.38245 74.7976C8.32622 72.7122 8.68359 70.6364 9.43394 68.6898C10.0535 67.1248 11.0338 65.7283 12.2951 64.6138C13.516 63.5674 14.9433 62.7895 16.4843 62.3307C18.0935 61.8426 19.7668 61.5983 21.4484 61.6059C22.6566 61.604 23.8629 61.7006 25.0553 61.895C25.9303 62.009 26.7884 62.2284 27.6107 62.5485L31.9926 66.2098L28.369 72.1878L21.4359 68.9747C20.6207 68.9721 19.8222 69.2048 19.136 69.6449C18.3879 70.1264 17.7854 70.8028 17.3934 71.6013C16.9191 72.5894 16.6892 73.677 16.7231 74.7725C16.7231 76.3644 16.9716 77.5904 17.4687 78.4506C17.9329 79.2851 18.6965 79.9124 19.6052 80.2058C20.6783 80.542 21.7988 80.7019 22.923 80.6792C24.0984 80.6861 25.2706 80.5582 26.4168 80.298C27.4155 80.0772 28.3958 79.7802 29.3492 79.4099C30.0055 79.1579 30.6462 78.8669 31.2679 78.5386V85.79C30.7861 86.0288 30.1033 86.3262 29.2194 86.6739C28.1627 87.0748 27.0718 87.3791 25.9602 87.583C24.4679 87.8563 22.9529 87.9867 21.4359 87.9726Z" fill="#F2F2F2"/>
<path d="M35.9681 87.6081L35.2434 85.4339L35.9681 81.8103V61.9494H43.9276V75.7737L43.5631 80.7379H44.2878L50.7768 80.3776L53.349 80.0131L56.5369 85.3041L54.7607 87.6249L35.9681 87.6081Z" fill="#F2F2F2"/>
<path d="M69.5613 87.9726C65.333 87.9726 62.2889 87.1208 60.4289 85.4172C58.5689 83.7136 57.6389 80.9767 57.6389 77.2064V67.785L57.6766 64.1236L57.6389 61.9494H65.7575V75.3967C65.7483 76.3799 65.8325 77.3618 66.0089 78.3291C66.1313 79.1042 66.5157 79.8139 67.098 80.3399C67.6566 80.8231 68.4944 81.0646 69.6116 81.0646C70.7287 81.0646 71.5861 80.8468 72.1837 80.4111C72.7707 79.9276 73.1586 79.2443 73.2729 78.4925C73.456 77.464 73.5401 76.4203 73.5243 75.3758V61.9285H81.4837V77.1855C81.4837 79.6515 81.0843 81.6749 80.2856 83.2556C79.4781 84.8487 78.1296 86.1021 76.4818 86.7912C74.7447 87.576 72.4378 87.9698 69.5613 87.9726Z" fill="#F2F2F2"/>
<path d="M86.1922 87.6081V67.7514L85.4717 64.1236L86.1922 61.9494H99.9536C102.682 61.9494 104.868 62.4815 106.51 63.5455C108.152 64.6096 108.974 66.228 108.977 68.4008C109.018 69.4165 108.799 70.4259 108.34 71.3332C107.932 72.0762 107.385 72.7333 106.728 73.2686C107.564 73.4713 108.352 73.8356 109.048 74.341C109.792 74.8827 110.4 75.5896 110.824 76.4063C111.311 77.3907 111.547 78.48 111.512 79.5775C111.512 82.1133 110.769 84.0878 109.283 85.501C107.797 86.9141 105.412 87.6207 102.128 87.6207L86.1922 87.6081ZM94.1516 71.9155H98.4246C99.0406 71.9642 99.6576 71.8332 100.201 71.5384C100.384 71.4037 100.53 71.2246 100.625 71.018C100.721 70.8114 100.762 70.584 100.745 70.3571C100.756 70.1016 100.684 69.8496 100.541 69.6378C100.398 69.426 100.19 69.2656 99.9494 69.1799C99.3506 68.9397 98.7094 68.8229 98.0643 68.8364H94.1516V71.9155ZM94.1516 80.7127H100.31C101.277 80.7127 101.952 80.5619 102.341 80.2603C102.528 80.1195 102.677 79.9361 102.778 79.7254C102.879 79.5148 102.927 79.283 102.92 79.0496C102.92 77.8878 102.171 77.3069 100.674 77.3069H94.1516V80.7127Z" fill="#F2F2F2"/>
<path d="M15.7513 28.5408H10.7243L10.8206 30.4888H8.86011V24.3935H10.8206L10.7243 26.3918H14.2055L15.1816 26.287L15.768 26.3918L15.7513 28.5408Z" fill="#F2F2F2"/>
<path d="M15.7512 23.5138H10.4142L9.43814 23.6143L8.84326 23.5138V21.3689H11.4866V19.3288H8.84326V17.184H12.5088L13.1832 17.0834H15.7512V19.3288H13.2712V21.3689H13.954L15.7512 21.2726V23.5138Z" fill="#F2F2F2"/>
<path d="M15.7512 15.7178L15.1647 15.9147L14.1886 15.7178H8.84326V10.6908L9.13648 10.2048L10.8122 10.8458L10.7116 11.7255V13.5478H11.495V11.1642H13.1037V12.5089L13.0073 13.5729H13.9121V10.8709L15.1438 9.71051L15.768 10.2844L15.7512 15.7178Z" fill="#F2F2F2"/>
<path d="M31.4899 30.6228C29.875 30.6355 28.2633 30.4797 26.6808 30.1578C25.3008 29.8828 23.9972 29.311 22.8602 28.4822C21.7303 27.6173 20.8607 26.4577 20.3467 25.1308C19.6994 23.3818 19.3978 21.5237 19.4586 19.6598C19.3951 17.7997 19.713 15.9464 20.3928 14.2138C20.9294 12.8928 21.8051 11.7368 22.9315 10.8625C24.0206 10.0582 25.2643 9.48769 26.5844 9.18684C27.9841 8.86281 29.4165 8.70116 30.8532 8.70508C31.7575 8.70055 32.6612 8.75091 33.5594 8.85589C34.308 8.9428 35.0508 9.0743 35.7838 9.24967L39.8724 11.6249L37.7779 16.9159L31.1297 14.9344C30.319 14.9285 29.5141 15.0705 28.7544 15.3533C28.0312 15.6239 27.4212 16.132 27.0243 16.7944C26.5441 17.6941 26.3209 18.7086 26.3791 19.7268C26.3791 21.651 26.7981 22.9985 27.6359 23.7693C28.4737 24.5401 29.6509 24.9269 31.1674 24.9297C31.6499 24.9361 32.132 24.9011 32.6084 24.825C32.9366 24.7689 33.2591 24.6834 33.572 24.5695V22.8938H30.9579V18.1475H40.5176L40.8486 19.9488L40.1866 23.0488V29.3619C39.9646 29.4415 39.4703 29.5839 38.6995 29.7808C37.7133 30.0245 36.7149 30.2161 35.7084 30.3547C34.3106 30.5459 32.9007 30.6355 31.4899 30.6228V30.6228Z" fill="#F2F2F2"/>
<path d="M53.5292 30.6229C52.2375 30.6221 50.9505 30.466 49.6961 30.1578C48.4289 29.8484 47.2403 29.2776 46.2065 28.4822C45.0921 27.5962 44.219 26.4435 43.6679 25.1308C43.0228 23.7065 42.7016 21.8828 42.7044 19.6598C42.7072 17.4367 43.0283 15.613 43.6679 14.1887C44.2178 12.8753 45.0911 11.7224 46.2065 10.8374C47.2403 10.042 48.4289 9.47121 49.6961 9.16172C50.9504 8.85217 52.2373 8.69465 53.5292 8.69254C54.8218 8.69527 56.1092 8.85707 57.3623 9.17429C58.6259 9.49023 59.8118 10.0604 60.8477 10.85C61.9647 11.7344 62.8395 12.8874 63.3905 14.2013C64.6773 17.7179 64.6773 21.5765 63.3905 25.0931C62.8395 26.407 61.9647 27.56 60.8477 28.4445C59.8118 29.234 58.6259 29.8042 57.3623 30.1201C56.1101 30.4445 54.8227 30.6133 53.5292 30.6229V30.6229ZM53.5292 24.6114C54.8307 24.6114 55.8081 24.2148 56.4616 23.4217C57.1235 22.6299 57.4545 21.3857 57.4545 19.6807C57.4545 17.9757 57.1235 16.7483 56.4616 15.9524C55.7998 15.1564 54.8195 14.7501 53.5292 14.7501C50.9236 14.7501 49.6207 16.3936 49.6207 19.6807C49.6207 21.3564 49.9433 22.6132 50.5968 23.4091C51.2503 24.205 52.2264 24.6114 53.5292 24.6114V24.6114Z" fill="#F2F2F2"/>
<path d="M77.2191 30.6229C75.9274 30.6217 74.6405 30.4655 73.386 30.1578C72.1201 29.8483 70.9329 29.2775 69.9006 28.4822C68.7836 27.5977 67.9088 26.4447 67.3577 25.1308C66.7154 23.7065 66.3957 21.8828 66.3985 19.6598C66.4012 17.4367 66.721 15.613 67.3577 14.1887C67.9077 12.8742 68.7827 11.721 69.9006 10.8374C70.9329 10.0421 72.1201 9.47129 73.386 9.16172C74.6403 8.85265 75.9272 8.69513 77.2191 8.69254C78.5117 8.69476 79.7992 8.85657 81.0522 9.17429C82.3171 9.49014 83.5044 10.0603 84.5417 10.85C85.6561 11.736 86.5293 12.8886 87.0804 14.2013C87.7255 15.6256 88.0467 17.4409 88.0439 19.6472C88.0411 21.8535 87.7199 23.6688 87.0804 25.0931C86.5293 26.4058 85.6561 27.5585 84.5417 28.4445C83.5044 29.2342 82.3171 29.8043 81.0522 30.1201C79.8 30.445 78.5126 30.6138 77.2191 30.6229ZM77.2191 24.6114C78.5205 24.6114 79.498 24.2148 80.1515 23.4217C80.8134 22.6299 81.1443 21.3857 81.1443 19.6807C81.1443 17.9757 80.8134 16.7483 80.1515 15.9524C79.4896 15.1564 78.5051 14.7501 77.2191 14.7501C74.6134 14.7501 73.3106 16.3936 73.3106 19.6807C73.3106 21.3564 73.6373 22.6132 74.2908 23.4091C74.9443 24.205 75.9162 24.6114 77.2191 24.6114V24.6114Z" fill="#F2F2F2"/>
<path d="M91.4707 30.3254V13.8787L90.8716 10.8709L91.4707 9.03604H101.663C103.052 9.03593 104.437 9.17628 105.798 9.45496C107.082 9.70743 108.3 10.2238 109.375 10.9714C110.485 11.7883 111.353 12.8897 111.889 14.1594C112.509 15.5558 112.819 17.3501 112.819 19.5425C112.819 21.7348 112.503 23.5431 111.872 24.9675C111.329 26.2696 110.452 27.4054 109.329 28.2601C108.263 29.0454 107.044 29.5991 105.752 29.8855C104.41 30.1894 103.038 30.3412 101.663 30.338L91.4707 30.3254ZM98.1482 24.6114H100.431C101.442 24.6346 102.451 24.5032 103.422 24.2218C104.208 23.9805 104.871 23.4466 105.274 22.7304C105.693 22.0015 105.902 20.9347 105.902 19.5299C105.902 18.1251 105.687 17.0778 105.257 16.388C104.832 15.7205 104.163 15.2454 103.393 15.0642C102.423 14.8373 101.428 14.7318 100.431 14.7501H98.1482V24.6114Z" fill="#F2F2F2"/>
<path d="M9.04863 58.1582V40.0275L8.38257 36.6762L9.04863 34.6905H20.9794C22.5588 34.6483 24.1293 34.941 25.5875 35.5493C26.8486 36.1162 27.8818 37.0917 28.5199 38.3183C29.2041 39.5863 29.5463 41.2619 29.5463 43.3453C29.5463 46.4621 28.7084 48.6963 27.0328 50.048C25.3571 51.3997 22.9972 52.0798 19.9531 52.0881H16.3084V52.8171L16.6394 56.1307L16.3084 58.1541L9.04863 58.1582ZM16.3378 45.8965H18.2648C18.9351 45.902 19.6051 45.8684 20.2714 45.796C20.7684 45.7598 21.2341 45.5403 21.5785 45.1802C21.9334 44.6974 22.0989 44.1012 22.0435 43.5045C22.103 42.8777 21.9251 42.2513 21.5449 41.7493C21.1784 41.3767 20.6914 41.1466 20.1709 41.1C19.4939 41.0193 18.8125 40.9815 18.1308 40.9868H16.011L16.3378 45.8965Z" fill="#F2F2F2"/>
<path d="M32.2274 58.1583V39.994L31.8965 36.6804L32.2274 34.6947H39.5501V58.1541L32.2274 58.1583Z" fill="#F2F2F2"/>
<path d="M43.228 58.1583L42.2017 56.1684L52.5405 40.9575H43.228V34.6738H62.2845V38.5823L53.6381 51.8745H54.6644L62.3515 51.2084V58.1373L43.228 58.1583Z" fill="#F2F2F2"/>
<path d="M65.0369 58.1583L64.0105 56.1684L74.3494 40.9575H65.0369V34.6738H84.0934V38.5823L75.4428 51.8745H76.4691L84.1604 51.2084V58.1373L65.0369 58.1583Z" fill="#F2F2F2"/>
<path d="M85.4841 58.1582L87.076 52.5573V48.3682L89.5267 47.3753L94.1683 34.745H104.143L109.811 49.5956L112.362 54.3V58.1792H105.173L103.498 53.2402H94.516L93.0917 58.1792L85.4841 58.1582ZM96.7195 47.4214H101.692L99.5053 40.8235H98.8099L96.7195 47.4214Z" fill="#F2F2F2"/>
<path d="M74.4415 121H0V0H121V74.4416C120.986 86.7852 116.076 98.6192 107.347 107.347C98.6192 116.076 86.7852 120.986 74.4415 121ZM2.76484 118.231H74.4415C86.0511 118.218 97.1814 113.6 105.391 105.391C113.6 97.1814 118.218 86.0511 118.231 74.4416V2.7858H2.76484V118.231Z" fill="#F2F2F2"/>
<path d="M116.182 92.2497H1.39917V119.613H77.9144C84.3235 119.613 90.6287 117.995 96.2451 114.907C101.861 111.819 106.607 107.363 110.041 101.952L116.182 92.2497Z" fill="#F2F2F2"/>
</g>
<defs>
<clipPath id="clip0_199_3600">
<rect width="121" height="121" fill="white"/>
</clipPath>
</defs>
</svg>
